<svg width="24" height="25" viewBox="0 0 24 25" fill="none" xmlns="http://www.w3.org/2000/svg">
<g id="IMAGE">
<path id="Vector" d="M17 2.4375H7C4.23858 2.4375 2 4.67608 2 7.4375V17.4375C2 20.1989 4.23858 22.4375 7 22.4375H17C19.7614 22.4375 22 20.1989 22 17.4375V7.4375C22 4.67608 19.7614 2.4375 17 2.4375Z" stroke="white" stroke-width="2" stroke-linecap="round" stroke-linejoin="round"/>
<path id="Vector_2" d="M16 11.8076C16.1234 12.6398 15.9812 13.4898 15.5937 14.2366C15.2062 14.9834 14.5931 15.589 13.8416 15.9673C13.0901 16.3455 12.2384 16.4772 11.4077 16.3435C10.5771 16.2099 9.80971 15.8177 9.21479 15.2228C8.61987 14.6278 8.22768 13.8605 8.09402 13.0298C7.96035 12.1991 8.09202 11.3475 8.47028 10.596C8.84854 9.84441 9.45414 9.2313 10.2009 8.8438C10.9477 8.4563 11.7977 8.31414 12.63 8.43756C13.4789 8.56344 14.2648 8.95902 14.8716 9.56586C15.4785 10.1727 15.8741 10.9587 16 11.8076Z" stroke="white" stroke-width="2" stroke-linecap="round" stroke-linejoin="round"/>
<path id="Vector_3" d="M17.5 6.9375H17.51" stroke="white" stroke-width="2" stroke-linecap="round" stroke-linejoin="round"/>
</g>
</svg>
