<svg width="24" height="25" viewBox="0 0 24 25" fill="none" xmlns="http://www.w3.org/2000/svg">
<g id="IMAGE">
<path id="Vector" d="M23 3.43754C22.0424 4.11302 20.9821 4.62965 19.86 4.96755C19.2577 4.27506 18.4573 3.78424 17.567 3.56147C16.6767 3.33871 15.7395 3.39474 14.8821 3.722C14.0247 4.04926 13.2884 4.63195 12.773 5.39126C12.2575 6.15058 11.9877 7.04988 12 7.96754V8.96754C10.2426 9.01311 8.50127 8.62336 6.93101 7.83299C5.36074 7.04262 4.01032 5.87618 3 4.43754C3 4.43754 -1 13.4376 8 17.4376C5.94053 18.8356 3.48716 19.5365 1 19.4376C10 24.4376 21 19.4376 21 7.93754C21 7.65754 20.97 7.37755 20.92 7.10755C21.9406 6.10104 22.6608 4.83026 23 3.43754Z" stroke="white" stroke-width="2" stroke-linecap="round" stroke-linejoin="round"/>
</g>
</svg>
